<svg xmlns="http://www.w3.org/2000/svg" width="24" height="24" fill="currentColor" viewBox="0 0 24 24">
    <path
        d="M12 15.5A3.5 3.5 0 1 0 12 8.5a3.5 3.5 0 0 0 0 7zm7.43-4.43c.04.3.07.61.07.93s-.03.63-.07.93l2.11 1.65a.5.5 0 0 1 .12.65l-2 3.46a.5.5 0 0 1-.6.22l-2.49-1a7.03 7.03 0 0 1-1.61.94l-.38 2.64a.5.5 0 0 1-.5.41h-4a.5.5 0 0 1-.5-.41l-.38-2.64a7.03 7.03 0 0 1-1.61-.94l-2.49 1a.5.5 0 0 1-.6-.22l-2-3.46a.5.5 0 0 1 .12-.65l2.11-1.65A6.94 6.94 0 0 1 4.57 12c0-.32.03-.63.07-.93L2.53 9.42a.5.5 0 0 1-.12-.65l2-3.46a.5.5 0 0 1 .6-.22l2.49 1a7.03 7.03 0 0 1 1.61-.94L9.5 2.16A.5.5 0 0 1 10 1.75h4c.24 0 .45.17.49.41l.38 2.64a7.03 7.03 0 0 1 1.61.94l2.49-1a.5.5 0 0 1 .6.22l2 3.46a.5.5 0 0 1-.12.65l-2.11 1.65z" />
</svg>