<svg xmlns="http://www.w3.org/2000/svg" width="20" height="20" fill="currentColor" viewBox="0 0 16 16">
    <path d="M8 4.5a3.5 3.5 0 1 1 0 7 3.5 3.5 0 0 1 0-7z" />
    <path
        d="M8 0a.5.5 0 0 1 .5.5V2a.5.5 0 0 1-1 0V.5A.5.5 0 0 1 8 0zm4.546 1.954a.5.5 0 0 1 .708 0l1.06 1.06a.5.5 0 1 1-.708.708l-1.06-1.06a.5.5 0 0 1 0-.708zM16 8a.5.5 0 0 1-.5.5H14a.5.5 0 0 1 0-1h1.5A.5.5 0 0 1 16 8zm-2.394 5.546a.5.5 0 0 1 0 .708l-1.06 1.06a.5.5 0 1 1-.708-.708l1.06-1.06a.5.5 0 0 1 .708 0zM8 14a.5.5 0 0 1 .5.5V16a.5.5 0 0 1-1 0v-1.5A.5.5 0 0 1 8 14zm-5.546-.454a.5.5 0 0 1-.708 0l-1.06-1.06a.5.5 0 1 1 .708-.708l1.06 1.06a.5.5 0 0 1 0 .708zM2 8a.5.5 0 0 1-.5.5H0a.5.5 0 0 1 0-1h1.5A.5.5 0 0 1 2 8zm.454-5.546a.5.5 0 0 1 0 .708l-1.06 1.06a.5.5 0 1 1-.708-.708l1.06-1.06a.5.5 0 0 1 .708 0z" />
</svg>